<svg width="30" height="30" viewBox="0 0 30 30" fill="none" xmlns="http://www.w3.org/2000/svg">
<path d="M26.9969 9C26.9828 11.115 26.9119 13.568 26.622 15.8856C26.2798 18.6203 25.6515 20.9844 24.5973 22.4037C23.4373 23.9652 22.2475 25.0916 20.7811 25.84C19.3135 26.5891 17.4892 27 15 27C12.5108 27 10.6865 26.5891 9.21886 25.84C7.75255 25.0916 6.56271 23.9652 5.40274 22.4037C4.34845 20.9844 3.72015 18.6203 3.37802 15.8856C3.08807 13.568 3.01722 11.115 3.00309 9L15 9H26.9969Z" stroke="#53513D" stroke-width="2"/>
<path d="M8 9C8 9 9 3 15 3C21 3 22 9 22 9" stroke="#53513D" stroke-width="2"/>
</svg>
