<svg width="30" height="30" viewBox="0 0 30 30" fill="none" xmlns="http://www.w3.org/2000/svg">
<path d="M19.5006 14.9996C19.5006 16.1931 19.0265 17.3377 18.1826 18.1816C17.3387 19.0255 16.1941 19.4996 15.0006 19.4996C13.8071 19.4996 12.6625 19.0255 11.8186 18.1816C10.9747 17.3377 10.5006 16.1931 10.5006 14.9996C10.5006 14.7431 10.5276 14.4926 10.5741 14.2496H9.00059V20.2451C9.00059 20.6621 9.33809 20.9996 9.75508 20.9996H20.2476C20.4474 20.9992 20.639 20.9195 20.7801 20.7781C20.9213 20.6366 21.0006 20.445 21.0006 20.2451V14.2496H19.4271C19.4736 14.4926 19.5006 14.7431 19.5006 14.9996ZM15.0006 17.9996C15.3947 17.9995 15.7848 17.9218 16.1489 17.7709C16.5129 17.62 16.8436 17.3989 17.1222 17.1202C17.4008 16.8415 17.6217 16.5106 17.7725 16.1465C17.9232 15.7824 18.0007 15.3922 18.0006 14.9981C18.0005 14.604 17.9228 14.2139 17.7719 13.8498C17.621 13.4858 17.3999 13.1551 17.1212 12.8765C16.8424 12.5979 16.5116 12.377 16.1475 12.2262C15.7834 12.0755 15.3932 11.998 14.9991 11.9981C14.2032 11.9983 13.4401 12.3146 12.8775 12.8775C12.3148 13.4404 11.9989 14.2038 11.9991 14.9996C11.9993 15.7955 12.3156 16.5586 12.8785 17.1212C13.4414 17.6839 14.2047 17.9998 15.0006 17.9996ZM18.6006 11.8496H20.3991C20.5186 11.8496 20.6332 11.8022 20.7178 11.7179C20.8024 11.6335 20.8502 11.5191 20.8506 11.3996V9.60111C20.8506 9.48136 20.803 9.36652 20.7183 9.28185C20.6337 9.19718 20.5188 9.14961 20.3991 9.14961H18.6006C18.4808 9.14961 18.366 9.19718 18.2813 9.28185C18.1967 9.36652 18.1491 9.48136 18.1491 9.60111V11.3996C18.1506 11.6471 18.3531 11.8496 18.6006 11.8496ZM15.0006 0.599609C11.1815 0.599609 7.51877 2.11675 4.81825 4.81727C2.11772 7.5178 0.600586 11.1805 0.600586 14.9996C0.600586 18.8187 2.11772 22.4814 4.81825 25.1819C7.51877 27.8825 11.1815 29.3996 15.0006 29.3996C16.8916 29.3996 18.7641 29.0271 20.5112 28.3035C22.2583 27.5798 23.8458 26.5191 25.1829 25.1819C26.5201 23.8448 27.5808 22.2573 28.3045 20.5103C29.0281 18.7632 29.4006 16.8906 29.4006 14.9996C29.4006 13.1086 29.0281 11.2361 28.3045 9.48897C27.5808 7.74188 26.5201 6.15444 25.1829 4.81727C23.8458 3.48011 22.2583 2.41941 20.5112 1.69574C18.7641 0.972076 16.8916 0.599609 15.0006 0.599609ZM22.5006 20.8331C22.5006 21.7496 21.7506 22.4996 20.8341 22.4996H9.16709C8.25059 22.4996 7.50059 21.7496 7.50059 20.8331V9.16611C7.50059 8.24961 8.25059 7.49961 9.16709 7.49961H20.8341C21.7506 7.49961 22.5006 8.24961 22.5006 9.16611V20.8331Z" fill="#F8F4EF"/>
</svg>
