<svg width="17" height="25" viewBox="0 0 17 25" fill="none" xmlns="http://www.w3.org/2000/svg">
<path d="M8.37473 5.7497C9.20353 5.7497 9.99838 6.07894 10.5844 6.66499C11.1705 7.25104 11.4997 8.0459 11.4997 8.8747C11.4997 9.7035 11.1705 10.4984 10.5844 11.0844C9.99838 11.6705 9.20353 11.9997 8.37473 11.9997C7.54593 11.9997 6.75107 11.6705 6.16502 11.0844C5.57897 10.4984 5.24973 9.7035 5.24973 8.8747C5.24973 8.0459 5.57897 7.25104 6.16502 6.66499C6.75107 6.07894 7.54593 5.7497 8.37473 5.7497ZM8.37473 6.9997C7.87745 6.9997 7.40053 7.19725 7.0489 7.54888C6.69727 7.90051 6.49973 8.37742 6.49973 8.8747C6.49973 9.37198 6.69727 9.8489 7.0489 10.2005C7.40053 10.5522 7.87745 10.7497 8.37473 10.7497C8.87201 10.7497 9.34892 10.5522 9.70055 10.2005C10.0522 9.8489 10.2497 9.37198 10.2497 8.8747C10.2497 8.37742 10.0522 7.90051 9.70055 7.54888C9.34892 7.19725 8.87201 6.9997 8.37473 6.9997ZM2.49973 12.446L8.37473 22.1084L14.2497 12.446C14.8833 11.4035 15.2281 10.2111 15.2487 8.99136C15.2694 7.77159 14.965 6.56831 14.367 5.505C13.7689 4.4417 12.8987 3.55667 11.8457 2.94076C10.7926 2.32485 9.59467 2.00024 8.37473 2.00024C7.15478 2.00024 5.95681 2.32485 4.90376 2.94076C3.85071 3.55667 2.98051 4.4417 2.38247 5.505C1.78443 6.56831 1.4801 7.77159 1.50071 8.99136C1.52131 10.2111 1.86612 11.4035 2.49973 12.446ZM15.3172 13.096L8.37473 24.5147L1.43223 13.096C0.683628 11.8639 0.276328 10.4548 0.252122 9.01337C0.227917 7.57192 0.587677 6.14998 1.29449 4.89347C2.0013 3.63697 3.0297 2.59115 4.27416 1.86334C5.51862 1.13554 6.93432 0.751953 8.37598 0.751953C9.81764 0.751953 11.2333 1.13554 12.4778 1.86334C13.7223 2.59115 14.7507 3.63697 15.4575 4.89347C16.1643 6.14998 16.524 7.57192 16.4998 9.01337C16.4756 10.4548 16.0683 11.8639 15.3197 13.096H15.3172Z" fill="#53513D"/>
</svg>
