<svg width="25" height="25" viewBox="0 0 25 25" fill="none" xmlns="http://www.w3.org/2000/svg">
<path d="M22.375 24.5C23.4088 24.5 24.25 23.6588 24.25 22.625V18.25C24.25 17.2162 23.4088 16.375 22.375 16.375C20.9125 16.375 19.475 16.145 18.1 15.6912C17.7713 15.5875 17.4206 15.5749 17.0854 15.6548C16.7501 15.7347 16.4428 15.9041 16.1962 16.145L14.3962 17.945C11.2851 16.256 8.73004 13.7018 7.04 10.5913L8.825 8.795C9.34 8.3175 9.525 7.59125 9.305 6.8925C8.85217 5.51537 8.62261 4.07466 8.625 2.625C8.625 1.59125 7.78375 0.75 6.75 0.75H2.375C1.34125 0.75 0.5 1.59125 0.5 2.625C0.5 14.6875 10.3125 24.5 22.375 24.5ZM2.375 2H6.75C6.91576 2 7.07473 2.06585 7.19194 2.18306C7.30915 2.30027 7.375 2.45924 7.375 2.625C7.375 4.22125 7.625 5.78875 8.11625 7.275C8.15234 7.38285 8.15656 7.49882 8.12841 7.60901C8.10025 7.7192 8.04091 7.81893 7.9575 7.89625L5.5125 10.3537C7.55875 14.3887 10.5812 17.4112 14.635 19.475L17.0713 17.0375C17.1544 16.9552 17.2583 16.8971 17.3719 16.8694C17.4855 16.8416 17.6046 16.8453 17.7162 16.88C19.2113 17.375 20.7787 17.625 22.375 17.625C22.7188 17.625 23 17.9062 23 18.25V22.625C23 22.9688 22.7188 23.25 22.375 23.25C11.0025 23.25 1.75 13.9975 1.75 2.625C1.75 2.45924 1.81585 2.30027 1.93306 2.18306C2.05027 2.06585 2.20924 2 2.375 2Z" fill="#53513D"/>
</svg>
