<svg width="30" height="30" viewBox="0 0 30 30" fill="none" xmlns="http://www.w3.org/2000/svg">
<path d="M15.0006 0.599609C7.04759 0.599609 0.600586 7.04661 0.600586 14.9996C0.600586 22.9526 7.04759 29.3996 15.0006 29.3996C22.9536 29.3996 29.4006 22.9526 29.4006 14.9996C29.4006 7.04661 22.9536 0.599609 15.0006 0.599609ZM20.5386 16.8461C20.5386 16.8461 21.8121 18.1031 22.1256 18.6866C22.1346 18.6986 22.1391 18.7106 22.1421 18.7166C22.2696 18.9311 22.2996 19.0976 22.2366 19.2221C22.1316 19.4291 21.7716 19.5311 21.6486 19.5401H19.3986C19.2426 19.5401 18.9156 19.4996 18.5196 19.2266C18.2151 19.0136 17.9151 18.6641 17.6226 18.3236C17.1861 17.8166 16.8081 17.3786 16.4271 17.3786C16.3787 17.3785 16.3306 17.3861 16.2846 17.4011C15.9966 17.4941 15.6276 17.9051 15.6276 19.0001C15.6276 19.3421 15.3576 19.5386 15.1671 19.5386H14.1366C13.7856 19.5386 11.9571 19.4156 10.3371 17.7071C8.35409 15.6146 6.56909 11.4176 6.55409 11.3786C6.44159 11.1071 6.67409 10.9616 6.92759 10.9616H9.20009C9.50309 10.9616 9.60209 11.1461 9.67109 11.3096C9.75209 11.5001 10.0491 12.2576 10.5366 13.1096C11.3271 14.4986 11.8116 15.0626 12.2001 15.0626C12.2729 15.0618 12.3445 15.0432 12.4086 15.0086C12.9156 14.7266 12.8211 12.9191 12.7986 12.5441C12.7986 12.4736 12.7971 11.7356 12.5376 11.3816C12.3516 11.1251 12.0351 11.0276 11.8431 10.9916C11.9208 10.8844 12.0232 10.7974 12.1416 10.7381C12.4896 10.5641 13.1166 10.5386 13.7391 10.5386H14.0856C14.7606 10.5476 14.9346 10.5911 15.1791 10.6526C15.6741 10.7711 15.6846 11.0906 15.6411 12.1841C15.6276 12.4946 15.6141 12.8456 15.6141 13.2596C15.6141 13.3496 15.6096 13.4456 15.6096 13.5476C15.5946 14.1041 15.5766 14.7356 15.9696 14.9951C16.0208 15.0273 16.0801 15.0444 16.1406 15.0446C16.2771 15.0446 16.6881 15.0446 17.8011 13.1351C18.1443 12.5205 18.4426 11.8818 18.6936 11.2241C18.7161 11.1851 18.7821 11.0651 18.8601 11.0186C18.9177 10.9893 18.9815 10.9743 19.0461 10.9751H21.7176C22.0086 10.9751 22.2081 11.0186 22.2456 11.1311C22.3116 11.3096 22.2336 11.8541 21.0141 13.5056L20.4696 14.2241C19.3641 15.6731 19.3641 15.7466 20.5386 16.8461Z" fill="#F8F4EF"/>
</svg>
