<svg width="244" height="225" viewBox="0 0 244 225" fill="none" xmlns="http://www.w3.org/2000/svg">
<path d="M188.794 60.5558C185.79 73.6376 183.102 85.7737 180.414 98.0674C178.833 105.475 178.833 105.475 171.085 105.475C155.589 105.475 140.252 105.633 124.756 105.633C123.808 105.633 122.701 105.475 121.436 105.318C121.91 103.426 122.385 101.85 122.701 100.116C123.333 96.4913 121.436 94.2847 117.799 94.1271C111.791 93.9695 105.624 93.9695 99.6156 93.9695C93.2909 93.9695 91.2354 96.1761 91.7097 102.481C91.7097 103.269 91.8678 103.899 91.8678 104.687C90.1285 105.475 88.5474 105.16 86.9662 105.16C75.5817 105.16 64.1972 105.16 52.8127 105.318C49.9666 105.318 49.3342 104.372 49.3342 101.85C49.4923 93.1815 49.3342 84.5128 49.3342 74.8985C39.0565 78.9964 29.4113 82.7791 19.608 86.7194C13.2833 74.4257 7.59107 62.132 2.05695 49.8383C0.950121 47.4741 0.95012 46.2132 3.32189 44.6371C15.1807 35.9684 26.0908 26.1965 37.3172 16.5822C47.9111 7.59834 60.4024 3.34283 73.8424 1.6091C76.2142 1.29388 78.7441 0.190596 81.5902 1.29388C81.4321 6.17984 81.2739 11.2234 82.5389 16.1094C86.8081 34.5499 104.992 48.1045 123.966 47.4741C146.418 46.5284 164.444 26.827 163.179 5.39178C162.863 0.348208 163.021 0.50582 168.239 1.29388C178.516 2.71238 188.478 5.07656 197.649 10.1201C203.341 13.2724 208.243 17.3703 212.986 21.6258C222.315 29.8216 231.486 37.8598 241.447 45.1099C243.503 46.5284 243.503 47.7893 242.554 49.8383C237.02 62.2896 231.17 74.4257 225.003 87.0346C218.204 84.6704 211.405 81.991 204.922 78.8388C203.341 78.0507 204.131 76.6322 204.448 75.529C206.978 67.3331 209.824 59.295 212.037 51.0992C213.144 46.8436 215.674 43.849 218.362 40.6968C218.995 39.9087 219.785 39.2783 220.259 38.3326C221.05 37.0717 220.892 35.9684 219.627 35.0228C218.362 34.2347 217.255 34.3923 216.306 35.4956C215.2 36.9141 213.935 38.3326 212.512 40.0663C210.456 38.9631 208.875 37.2293 206.819 36.2837C200.811 33.6043 193.538 37.5446 192.273 43.849C190.059 55.8275 189.743 55.9851 177.726 59.295C163.179 63.2352 148.474 66.0723 133.295 65.757C132.188 65.757 131.081 65.757 129.816 65.757C128.077 65.757 127.128 66.7027 126.97 68.1212C126.812 70.0126 128.235 70.3278 129.816 70.3278C135.666 70.643 141.517 70.3278 147.209 69.6973C157.329 68.594 167.448 66.8603 177.251 64.0233C181.046 63.0776 184.525 61.9744 188.794 60.5558ZM93.6071 61.6591C94.714 61.5015 95.5045 61.1863 95.9789 60.083C96.4533 58.9797 95.8208 58.1917 95.0302 57.5612C92.8165 55.8275 90.4448 54.5666 88.5474 52.5177C87.7568 51.572 86.4918 51.7296 85.385 52.2024C84.4363 52.6753 84.2782 53.6209 84.4363 54.409C84.7525 56.1427 91.7097 61.6591 93.6071 61.6591ZM79.3765 43.6914C77.7954 40.6968 76.2142 37.3869 74.4749 34.2347C74.0005 33.4467 72.8937 33.6043 71.945 33.9195C70.9963 34.2347 70.5219 35.1804 70.6801 35.9684C71.4706 39.4359 73.2099 42.4305 75.1073 45.2675C75.7398 46.2132 77.1629 46.0556 78.2697 45.5827C79.2184 45.4251 79.3765 44.6371 79.3765 43.6914ZM66.7271 17.3703C66.8852 18.9464 67.2015 20.6801 67.3596 22.4138C67.5177 23.8323 67.992 24.778 69.7313 24.6204C71.1544 24.4628 71.945 23.5171 71.945 22.0986C71.7869 19.2616 71.6288 16.4246 71.4706 13.43C71.3125 12.1691 70.8382 11.381 69.4151 11.2234C67.8339 11.2234 67.5177 12.1691 67.2015 13.2724C66.8852 14.6909 66.8852 15.9518 66.7271 17.3703ZM114.321 69.0669C115.902 69.2245 117.009 68.9093 117.483 67.6484C117.957 66.3875 117.325 65.2842 116.218 64.969C113.214 64.1809 110.051 63.5505 107.047 62.92C105.782 62.6048 104.675 63.3929 104.359 64.4961C104.043 65.757 104.675 66.5451 105.94 67.0179C108.628 68.1212 111.633 68.7517 114.321 69.0669Z" fill="#EEB943"/>
<path d="M193.391 111.32C194.656 112.581 194.656 114 194.656 115.576C194.656 150.723 194.656 185.871 194.656 221.018C194.656 223.855 193.707 224.485 190.861 224.485C147.221 224.328 103.58 224.485 59.9397 224.485C57.4098 224.485 54.8799 224.485 52.35 224.643C49.662 224.801 48.7133 224.013 48.7133 221.018C48.7133 214.398 48.5552 215.344 54.4056 215.344C87.294 215.344 120.183 215.344 153.071 215.344C163.665 215.344 165.246 213.768 167.143 203.366C169.831 188.708 173.784 174.207 178.054 159.865C182.481 144.576 186.908 129.288 191.335 113.842C191.81 113.054 192.126 111.951 193.391 111.32Z" fill="#EEB943"/>
<path d="M38.4211 148.971C34.9425 153.068 32.5707 158.112 26.8785 157.482C22.9255 157.009 20.87 153.699 20.2375 149.443C18.3401 150.389 17.5495 151.965 16.759 153.384C14.8615 157.009 12.1735 158.742 8.69495 158.27C5.05824 157.797 2.21212 154.96 1.42154 151.019C0.472829 146.134 1.42154 141.248 2.52836 136.362C3.47707 132.264 4.42577 128.008 5.37448 123.91C3.7933 123.122 2.68648 125.171 0.789062 123.595C1.89589 118.867 4.42577 114.296 8.2206 111.144C9.48554 110.04 13.2804 109.725 15.6521 111.617C17.5495 113.35 16.759 115.557 16.2846 117.606C13.9128 125.802 11.5411 133.997 10.4342 142.508C10.118 144.715 9.64366 147.394 11.8573 148.34C14.5453 149.443 16.1265 146.606 17.3914 144.715C21.8187 138.568 23.2418 131.16 23.7161 124.068C24.0324 120.285 23.7161 116.66 25.4554 113.193C26.5623 110.829 30.5152 109.41 33.3613 110.513C36.6818 111.774 35.8912 114.611 35.2587 116.975C33.0451 123.753 31.4639 130.845 30.0408 137.78C29.5665 139.987 29.2503 142.193 29.2503 144.557C29.2503 145.818 29.2503 147.394 30.9896 148.025C32.5707 148.498 33.6776 147.552 34.6263 146.449C36.0493 144.873 36.998 143.139 37.4724 141.248C39.8441 133.052 43.0065 125.014 43.639 116.503C43.7971 114.926 45.2201 113.823 44.5877 112.247C44.5877 112.089 44.7458 111.932 44.9039 111.774C45.8526 110.829 47.4338 110.671 47.9082 111.459C49.4893 113.666 53.9166 110.356 53.9166 114.926C53.9166 116.818 53.7585 118.709 52.9679 120.443C49.8056 127.22 48.8569 134.628 47.2757 141.878C46.8013 143.927 45.062 147.552 49.9637 148.182C50.7543 148.34 51.703 151.335 50.2799 152.753C48.3825 154.802 46.0107 156.221 43.0065 155.905C40.0023 155.59 39.686 153.226 39.2117 151.019C38.8954 150.547 38.7373 150.074 38.4211 148.971Z" fill="#53513D"/>
<path d="M80.4768 189.014C80.0025 196.107 77.1564 202.727 76.682 209.661C76.5239 211.395 75.8914 212.498 74.3102 213.287C72.5709 214.075 71.306 213.129 70.1992 212.026C67.6693 209.504 66.8787 206.352 67.5112 203.042C68.9342 196.422 70.0411 189.645 71.7804 183.183C72.7291 179.4 71.306 175.617 72.7291 171.835C73.2034 170.731 73.2034 169.313 73.6778 168.21C75.1008 165.057 77.4726 163.796 81.1093 164.269C84.2717 164.742 84.4298 167.106 84.9041 169.786C86.1691 177.824 87.9084 185.704 89.4895 193.585C90.7545 193.743 91.0707 193.112 91.2288 192.482C95.6561 184.601 100.083 176.721 102.93 168.052C103.72 165.53 107.515 163.166 110.045 163.796C112.733 164.427 114.156 167.579 113.207 170.731C110.994 177.982 108.622 185.389 106.408 192.639C105.618 195.319 105.459 197.998 106.092 201.15C108.78 199.417 109.729 201.623 110.677 203.199C111.31 204.46 110.677 205.406 108.464 207.14C105.934 209.031 103.404 211.553 100.083 209.819C96.6048 207.928 97.0792 204.303 97.2373 200.993C97.2373 198.471 97.7116 195.949 98.0279 193.112C95.9724 194.373 95.8142 196.264 94.8655 197.841C92.9681 201.308 91.3869 204.775 89.6477 208.243C88.5408 210.292 86.8015 210.765 84.9041 209.819C82.8486 208.873 80.7931 207.77 81.4255 204.776C82.3742 199.574 82.3742 194.216 80.4768 189.014Z" fill="#53513D"/>
<path d="M209.664 43.2202C206.818 45.742 204.446 48.4214 200.968 49.3671C199.861 49.6823 199.545 50.1551 199.386 51.1008C197.805 57.7205 196.066 64.4978 194.327 71.1175C194.01 72.536 193.852 74.1121 194.643 75.6882C196.54 75.2154 197.015 73.6393 197.489 72.0631C198.912 67.3348 200.493 62.4488 201.6 57.5629C202.391 54.0954 204.604 52.6769 208.399 51.1008C193.062 100.118 177.882 148.505 162.703 197.049C161.438 196.103 162.071 195.315 162.229 194.527C169.977 160.01 177.724 125.651 185.472 91.1342C188.002 79.6285 191.006 68.1229 193.378 56.6172C194.169 52.6769 195.275 48.7366 195.75 44.7963C196.224 41.3289 198.121 39.4375 201.126 38.8071C204.762 38.3343 207.609 39.7528 209.664 43.2202Z" fill="#53513D"/>
<path d="M142.777 200.833C144.516 201.305 145.149 199.414 146.572 199.729C147.679 205.088 145.623 208.556 140.405 209.974C136.452 211.077 133.922 208.871 133.448 204.3C133.132 198.941 134.08 193.74 135.345 188.696C135.503 187.751 136.294 186.963 135.187 185.702C132.499 189.8 130.602 194.055 128.704 198.468C126.965 202.409 125.384 206.349 123.803 210.289C123.17 211.865 122.38 213.126 120.324 213.126C118.269 213.126 117.162 212.496 116.055 210.762C114.474 208.083 114.79 205.719 115.739 202.724C117.162 198.153 117.794 193.425 118.743 188.696C119.217 186.49 119.692 184.283 120.166 182.077C120.482 180.501 120.482 179.24 120.008 177.506C118.901 173.723 120.957 170.098 123.17 167.104C124.752 164.897 127.123 165.055 129.653 165.843C132.974 166.789 132.815 168.522 131.867 170.886C129.653 176.403 127.756 181.919 126.649 187.751C126.491 188.697 126.333 189.642 126.807 190.903C127.914 188.854 128.863 186.805 129.969 184.756C133.448 178.767 137.085 172.935 140.721 166.946C142.777 163.479 145.149 163.006 148.627 165.685C150.999 167.577 150.367 169.468 148.785 171.99C145.465 177.506 144.358 183.968 142.935 190.115C142.461 193.898 141.67 197.208 142.777 200.833Z" fill="#53513D"/>
<path d="M108.307 146.302C110.52 146.932 111.153 145.199 112.418 145.356C113.841 151.03 111.785 154.498 106.093 155.759C102.773 156.389 100.875 155.286 99.9264 151.818C98.5034 146.302 100.085 141.101 101.033 135.742C101.191 134.639 101.824 133.693 101.508 132.432C99.9264 132.117 100.085 133.535 99.6102 134.324C96.1316 140.943 93.1274 147.72 90.5975 154.655C89.6488 157.335 88.2257 159.699 84.9052 158.596C82.2172 157.65 81.2685 154.813 81.5848 152.134C82.0591 148.666 82.8497 145.199 83.4822 141.731C84.4309 136.688 85.5377 131.644 86.6445 126.601C86.8027 126.128 87.1189 125.34 86.8027 125.182C85.5377 124.236 83.9565 123.133 85.0634 121.557C87.1189 118.562 87.5932 114.622 90.2812 112.1C92.4949 109.894 95.1829 110.997 97.2384 111.943C99.4521 113.046 98.6615 115.41 97.7128 117.301C95.341 122.975 93.6017 128.965 92.4949 135.112C94.5504 135.269 94.5504 133.693 95.0248 132.59C98.5034 125.655 102.931 119.035 106.884 112.416C107.832 110.839 109.097 109.106 111.469 109.894C113.525 110.682 115.896 110.997 116.371 113.834C116.529 114.937 116.371 115.725 115.896 116.671C110.837 125.812 108.781 135.742 108.307 146.302Z" fill="#53513D"/>
<path d="M52.8096 199.574C49.9634 199.732 47.1173 199.889 44.4293 200.047C43.1644 200.047 43.1644 200.993 42.69 201.781C41.7413 203.514 40.9507 205.406 39.8439 207.139C36.9978 211.71 36.8397 211.553 29.5663 210.607C29.0919 209.504 29.4082 208.716 30.0406 207.77C37.1559 198.628 39.6858 187.438 43.7969 177.036C44.5875 174.987 45.2199 172.78 46.0105 170.574C48.3823 164.584 50.4378 163.639 56.6044 165.372C59.2924 166.16 61.3479 168.209 63.7197 169.628C64.9846 170.416 64.5103 172.15 64.194 173.411C63.0872 177.666 61.9804 181.922 61.8223 186.335C61.8223 188.857 60.5573 191.536 62.9291 193.742C63.4034 194.215 63.5616 195.161 62.9291 195.949C59.7667 200.047 61.1898 204.145 63.2453 208.085C63.8778 209.504 63.8778 210.292 62.2966 210.922C60.2411 211.868 58.3437 212.656 55.8138 211.868C52.9677 210.922 52.019 209.346 52.6514 206.509C53.1258 204.302 53.1258 202.096 52.8096 199.574ZM52.9677 190.905C53.7583 184.916 54.5489 179.4 55.3394 173.883C55.4976 173.095 55.8138 172.15 54.707 171.677C53.6001 171.204 53.2839 171.992 52.9677 172.938C50.9122 178.927 48.8566 184.759 47.4336 191.063C49.331 190.905 51.0703 190.905 52.9677 190.905Z" fill="#53513D"/>
<path d="M60.3967 120.603C59.448 119.185 57.8668 119.973 57.0762 119.185C57.3925 116.663 55.9694 113.984 57.5506 110.989C61.0292 110.989 64.824 110.989 68.7769 110.989C72.7299 110.989 76.5247 110.043 80.4777 110.674C82.217 110.989 82.8494 111.619 82.6913 113.353C82.5332 114.772 82.8494 116.19 82.5332 117.451C82.217 119.185 81.7426 120.288 79.3708 119.658C70.9906 117.609 67.8282 120.446 67.512 129.745C70.5162 129.587 73.5205 129.272 76.5247 129.114C78.8965 128.957 79.529 129.902 78.8965 132.109C78.8965 132.267 78.7384 132.424 78.7384 132.424C79.6871 140.305 73.3624 138.256 69.5675 138.571C65.7727 138.729 64.824 140.147 64.824 143.457C64.824 145.033 64.3496 146.767 64.1915 148.501C68.4607 149.131 72.7299 148.973 76.9991 148.816C77.9478 151.653 76.2085 153.859 76.5247 156.381C76.6828 157.484 75.1017 157.642 74.153 157.8C68.4607 158.588 62.7685 157.484 57.2344 157.012C54.5463 156.696 54.5463 154.805 54.8626 152.756C56.4438 143.93 58.0249 135.261 59.6061 126.435C59.9224 124.228 60.2386 122.337 60.3967 120.603Z" fill="#53513D"/>
<path d="M155.742 129.748C158.746 129.59 161.75 129.275 164.755 129.117C166.968 128.96 168.391 129.748 167.126 132.27C166.178 134.161 167.759 136.525 166.178 138.101C164.597 139.52 162.383 137.944 160.327 138.259C154.003 139.205 154.003 139.205 152.896 145.509C152.738 146.455 152.58 147.558 152.421 148.661C156.691 149.134 160.96 149.134 165.229 148.819C166.02 151.656 164.755 153.862 164.913 156.227C165.071 157.488 163.648 157.488 162.541 157.645C156.691 158.591 150.998 157.488 145.148 156.857C142.618 156.542 142.934 154.651 143.092 152.917C144.199 143.302 146.413 133.846 148.152 124.389C148.31 123.128 148.468 121.867 148.627 120.922C147.836 119.346 146.413 120.449 145.464 119.503C145.464 119.346 145.148 119.03 145.306 118.873C145.939 116.508 144.041 113.514 146.097 111.78C147.994 110.046 150.682 111.78 153.054 111.623C158.272 111.307 163.332 110.046 168.549 110.992C171.237 111.465 172.186 113.199 171.237 117.297C170.763 119.503 169.656 121.079 166.968 119.661C166.652 119.503 166.178 119.503 165.861 119.503C158.746 118.4 156.691 120.291 155.742 129.748Z" fill="#53513D"/>
<path d="M10.438 194.052C10.5962 197.204 10.2799 200.356 12.8098 202.878C14.8653 204.927 17.079 205.4 19.6089 203.981C22.1388 202.72 24.0362 200.829 25.9336 198.622C26.7242 197.677 27.6729 196.573 29.0959 197.361C30.519 198.15 30.6771 199.726 29.8865 200.987C26.8823 205.715 23.4037 210.128 17.7115 211.862C10.1218 214.226 2.84839 209.97 1.42533 201.617C-0.630198 188.535 3.16463 176.872 12.6517 167.573C16.7628 163.475 25.143 163.79 29.8865 167.415C31.3096 168.519 31.7839 169.622 31.4677 171.356C30.9934 174.035 30.6771 176.872 30.2028 179.551C29.8865 182.073 27.831 183.964 25.3011 183.492C22.9294 183.019 21.0319 181.916 21.5063 178.921C21.8225 176.872 22.1388 174.981 22.455 172.932C22.6131 171.986 22.9294 170.883 21.6644 170.252C20.5576 169.779 19.6089 170.252 18.9764 170.883C18.0277 171.828 16.9209 172.774 16.2884 174.035C12.8098 180.182 10.2799 186.644 10.438 194.052Z" fill="#53513D"/>
<path d="M126.805 119.978C124.275 119.978 122.22 119.978 120.006 119.978C119.532 117.298 119.216 114.619 118.741 111.782C125.54 110.206 132.814 110.521 139.929 110.363C142.301 110.363 143.249 112.255 142.775 114.304C142.301 116.353 142.933 119.662 139.296 119.505C136.45 119.347 135.66 120.45 135.027 122.972C132.656 133.059 130.126 143.304 130.442 153.864C130.6 156.701 128.544 158.435 125.856 157.962C122.852 157.489 120.164 154.494 120.639 152.13C122.694 141.57 124.75 131.01 126.805 119.978Z" fill="#53513D"/>
<path d="M106.097 107.048C101.037 107.206 97.7165 104.684 96.926 100.744C96.6097 99.1678 96.4516 97.5917 98.5071 97.2765C100.088 97.1189 102.144 96.4884 102.46 99.3255C102.618 100.429 102.46 101.69 104.041 102.005C105.622 102.32 106.413 101.217 106.887 100.114C108.469 96.1732 111.631 96.9613 114.477 97.4341C116.849 97.907 116.374 99.6407 115.584 101.217C113.37 105 109.733 106.418 106.097 107.048Z" fill="#53513D"/>
<path d="M153.215 209.972C153.373 205.874 156.061 203.195 159.856 203.352C162.702 203.51 163.651 205.559 163.809 207.923C163.809 210.76 160.172 214.07 157.326 214.07C154.48 213.912 153.373 212.336 153.215 209.972Z" fill="#53513D"/>
</svg>
