<svg width="280" height="261" viewBox="0 0 280 261" fill="none" xmlns="http://www.w3.org/2000/svg">
<g opacity="0.2">
<path d="M192.929 74.9717C190.549 85.2573 188.42 94.7993 186.29 104.465C185.038 110.29 185.038 110.29 178.9 110.29C166.626 110.29 154.476 110.413 142.201 110.413C141.449 110.413 140.573 110.29 139.571 110.166C139.946 108.679 140.322 107.439 140.573 106.076C141.074 103.226 139.571 101.491 136.69 101.367C131.93 101.243 127.045 101.243 122.286 101.243C117.275 101.243 115.647 102.978 116.023 107.935C116.023 108.555 116.148 109.05 116.148 109.67C114.77 110.29 113.518 110.042 112.265 110.042C103.247 110.042 94.2287 110.042 85.2104 110.166C82.9558 110.166 82.4548 109.422 82.4548 107.439C82.58 100.624 82.4548 93.8079 82.4548 86.2486C74.3133 89.4706 66.6728 92.4447 58.907 95.5428C53.8968 85.8769 49.3877 76.2109 45.0038 66.545C44.127 64.6862 44.127 63.6948 46.0058 62.4556C55.3999 55.6398 64.0424 47.9567 72.9355 40.3974C81.3275 33.3338 91.2226 29.9879 101.869 28.6248C103.748 28.3769 105.752 27.5095 108.007 28.3769C107.881 32.2185 107.756 36.1841 108.758 40.0256C112.14 54.5245 126.544 65.1819 141.575 64.6862C159.361 63.9426 173.64 48.4524 172.638 31.5989C172.387 27.6334 172.512 27.7573 176.646 28.3769C184.787 29.4922 192.678 31.3511 199.943 35.3166C204.452 37.795 208.335 41.017 212.093 44.3629C219.483 50.8069 226.747 57.1269 234.638 62.8273C236.267 63.9426 236.267 64.934 235.515 66.545C231.131 76.3349 226.497 85.8769 221.612 95.7906C216.226 93.9318 210.84 91.8251 205.705 89.3467C204.452 88.7271 205.079 87.6118 205.329 86.7443C207.333 80.3004 209.588 73.9803 211.341 67.5364C212.218 64.1905 214.222 61.836 216.351 59.3575C216.852 58.7379 217.479 58.2422 217.854 57.4987C218.481 56.5073 218.355 55.6398 217.353 54.8963C216.351 54.2767 215.475 54.4006 214.723 55.2681C213.846 56.3834 212.844 57.4987 211.717 58.8618C210.089 57.9944 208.836 56.6312 207.208 55.8877C202.448 53.781 196.686 56.8791 195.684 61.836C193.931 71.254 193.68 71.378 184.161 73.9803C172.638 77.0784 160.989 79.309 148.965 79.0611C148.088 79.0611 147.211 79.0611 146.209 79.0611C144.831 79.0611 144.08 79.8047 143.955 80.92C143.829 82.407 144.957 82.6549 146.209 82.6549C150.843 82.9027 155.478 82.6549 159.987 82.1592C168.003 81.2917 176.02 79.9286 183.785 77.698C186.791 76.9545 189.547 76.087 192.929 74.9717ZM117.526 75.8392C118.403 75.7152 119.029 75.4674 119.405 74.5999C119.78 73.7325 119.279 73.1129 118.653 72.6172C116.9 71.254 115.021 70.2627 113.518 68.6517C112.892 67.9081 111.889 68.0321 111.013 68.4038C110.261 68.7756 110.136 69.5191 110.261 70.1387C110.512 71.5019 116.023 75.8392 117.526 75.8392ZM106.253 61.712C105.001 59.3575 103.748 56.7551 102.37 54.2767C101.994 53.6571 101.118 53.781 100.366 54.0289C99.6146 54.2767 99.2388 55.0202 99.3641 55.6398C99.9904 58.3661 101.368 60.7207 102.871 62.9513C103.372 63.6948 104.499 63.5709 105.376 63.1991C106.128 63.0752 106.253 62.4556 106.253 61.712ZM96.2327 41.017C96.358 42.2562 96.6085 43.6194 96.7337 44.9825C96.859 46.0978 97.2348 46.8414 98.6125 46.7174C99.7398 46.5935 100.366 45.85 100.366 44.7347C100.241 42.5041 100.116 40.2735 99.9904 37.919C99.8651 36.9276 99.4893 36.308 98.362 36.184C97.1095 36.184 96.859 36.9276 96.6085 37.795C96.358 38.9103 96.358 39.9017 96.2327 41.017ZM133.934 81.6635C135.187 81.7874 136.064 81.5396 136.439 80.5482C136.815 79.5568 136.314 78.6894 135.437 78.4415C133.057 77.8219 130.552 77.3262 128.173 76.8305C127.17 76.5827 126.294 77.2023 126.043 78.0698C125.793 79.0611 126.294 79.6808 127.296 80.0525C129.425 80.92 131.805 81.4157 133.934 81.6635Z" fill="#BAB7A4"/>
<path d="M196.57 114.885C197.572 115.876 197.572 116.991 197.572 118.231C197.572 145.865 197.572 173.5 197.572 201.135C197.572 203.365 196.82 203.861 194.566 203.861C159.996 203.737 125.425 203.861 90.8553 203.861C88.8512 203.861 86.8472 203.861 84.8431 203.985C82.7138 204.109 81.9622 203.489 81.9622 201.135C81.9622 195.93 81.837 196.673 86.4714 196.673C112.524 196.673 138.577 196.673 164.63 196.673C173.022 196.673 174.274 195.434 175.778 187.255C177.907 175.731 181.038 164.33 184.42 153.053C187.927 141.032 191.434 129.012 194.941 116.868C195.317 116.248 195.568 115.38 196.57 114.885Z" fill="#BAB7A4"/>
<path d="M73.8105 144.485C71.0549 147.707 69.1761 151.673 64.6669 151.177C61.5356 150.805 59.9073 148.203 59.4063 144.857C57.9032 145.601 57.2769 146.84 56.6507 147.955C55.1476 150.805 53.0183 152.169 50.2627 151.797C47.3819 151.425 45.1273 149.194 44.501 146.096C43.7495 142.255 44.501 138.413 45.3778 134.572C46.1293 131.35 46.8808 128.004 47.6324 124.782C46.3798 124.162 45.503 125.773 44 124.534C44.8768 120.816 46.8808 117.222 49.8869 114.744C50.889 113.877 53.8951 113.629 55.7739 115.116C57.2769 116.479 56.6507 118.214 56.2749 119.825C54.3961 126.269 52.5173 132.713 51.6405 139.405C51.39 141.139 51.0142 143.246 52.7678 143.99C54.8971 144.857 56.1496 142.627 57.1517 141.139C60.6588 136.307 61.7861 130.482 62.1618 124.906C62.4123 121.932 62.1618 119.081 63.5396 116.355C64.4164 114.496 67.5478 113.381 69.8023 114.248C72.4327 115.24 71.8064 117.47 71.3054 119.329C69.5518 124.658 68.2993 130.234 67.172 135.687C66.7962 137.422 66.5457 139.157 66.5457 141.016C66.5457 142.007 66.5457 143.246 67.9235 143.742C69.1761 144.114 70.0528 143.37 70.8044 142.503C71.9317 141.263 72.6832 139.9 73.0589 138.413C74.9378 131.969 77.4428 125.649 77.9439 118.957C78.0691 117.718 79.1964 116.851 78.6954 115.612C78.6954 115.488 78.8206 115.364 78.9459 115.24C79.6974 114.496 80.95 114.372 81.3257 114.992C82.5783 116.727 86.0854 114.124 86.0854 117.718C86.0854 119.205 85.9601 120.692 85.3338 122.055C82.8288 127.384 82.0772 133.208 80.8247 138.909C80.4489 140.52 79.0711 143.37 82.954 143.866C83.5803 143.99 84.3318 146.344 83.2045 147.46C81.7015 149.071 79.8227 150.186 77.4428 149.938C75.063 149.69 74.8125 147.831 74.4367 146.096C74.1862 145.725 74.061 145.353 73.8105 144.485Z" fill="#BAB7A4"/>
<path d="M107.126 175.973C106.75 181.55 104.495 186.754 104.12 192.207C103.994 193.57 103.493 194.438 102.241 195.057C100.863 195.677 99.8609 194.933 98.9841 194.066C96.98 192.083 96.3538 189.605 96.8548 187.002C97.9821 181.797 98.8588 176.469 100.237 171.388C100.988 168.414 99.8609 165.44 100.988 162.466C101.364 161.598 101.364 160.483 101.74 159.615C102.867 157.137 104.746 156.146 107.627 156.517C110.132 156.889 110.257 158.748 110.633 160.855C111.635 167.175 113.013 173.371 114.265 179.567C115.267 179.691 115.518 179.195 115.643 178.699C119.15 172.503 122.657 166.307 124.912 159.491C125.538 157.509 128.544 155.65 130.548 156.146C132.677 156.641 133.805 159.12 133.053 161.598C131.3 167.299 129.421 173.123 127.667 178.823C127.041 180.93 126.916 183.037 127.417 185.515C129.546 184.152 130.298 185.887 131.049 187.126C131.55 188.117 131.049 188.861 129.296 190.224C127.291 191.711 125.287 193.694 122.657 192.331C119.902 190.844 120.277 187.994 120.403 185.391C120.403 183.408 120.778 181.426 121.029 179.195C119.4 180.186 119.275 181.674 118.524 182.913C117.021 185.639 115.768 188.365 114.39 191.092C113.514 192.703 112.136 193.074 110.633 192.331C109.004 191.587 107.376 190.72 107.877 188.365C108.629 184.276 108.629 180.063 107.126 175.973Z" fill="#BAB7A4"/>
<path d="M209.462 61.344C207.207 63.3267 205.328 65.4334 202.573 66.1769C201.696 66.4248 201.446 66.7966 201.32 67.5401C200.068 72.7448 198.69 78.0735 197.312 83.2782C197.062 84.3935 196.936 85.6327 197.563 86.872C199.066 86.5002 199.441 85.261 199.817 84.0217C200.945 80.3041 202.197 76.4625 203.074 72.6209C203.7 69.8946 205.454 68.7793 208.46 67.5401C196.31 106.08 184.286 144.124 172.261 182.292C171.259 181.549 171.76 180.929 171.886 180.309C178.023 153.17 184.16 126.155 190.298 99.0163C192.302 89.97 194.682 80.9237 196.561 71.8774C197.187 68.7793 198.064 65.6813 198.439 62.5832C198.815 59.8569 200.318 58.3698 202.698 57.8742C205.579 57.5024 207.834 58.6177 209.462 61.344Z" fill="#BAB7A4"/>
<path d="M156.476 185.265C157.854 185.636 158.355 184.149 159.482 184.397C160.359 188.611 158.731 191.337 154.597 192.452C151.466 193.32 149.462 191.585 149.086 187.991C148.836 183.778 149.587 179.688 150.589 175.723C150.715 174.979 151.341 174.359 150.464 173.368C148.335 176.59 146.832 179.936 145.329 183.406C143.951 186.504 142.698 189.602 141.446 192.7C140.945 193.939 140.319 194.931 138.69 194.931C137.062 194.931 136.185 194.435 135.308 193.072C134.056 190.965 134.306 189.106 135.058 186.752C136.185 183.158 136.686 179.44 137.438 175.723C137.813 173.988 138.189 172.253 138.565 170.518C138.816 169.279 138.816 168.287 138.44 166.924C137.563 163.95 139.191 161.1 140.945 158.745C142.197 157.01 144.076 157.134 146.08 157.754C148.711 158.497 148.585 159.861 147.834 161.719C146.08 166.057 144.577 170.394 143.7 174.979C143.575 175.723 143.45 176.466 143.826 177.458C144.702 175.847 145.454 174.236 146.331 172.625C149.086 167.916 151.967 163.33 154.848 158.621C156.476 155.895 158.355 155.523 161.111 157.63C162.99 159.117 162.488 160.604 161.236 162.587C158.606 166.924 157.729 172.005 156.602 176.838C156.226 179.812 155.6 182.414 156.476 185.265Z" fill="#BAB7A4"/>
<path d="M129.17 142.39C130.924 142.886 131.425 141.522 132.427 141.646C133.554 146.108 131.926 148.834 127.417 149.825C124.786 150.321 123.283 149.453 122.532 146.727C121.405 142.39 122.657 138.3 123.409 134.087C123.534 133.22 124.035 132.476 123.784 131.485C122.532 131.237 122.657 132.352 122.281 132.972C119.526 138.176 117.146 143.505 115.142 148.958C114.39 151.064 113.263 152.923 110.633 152.056C108.503 151.312 107.752 149.082 108.002 146.975C108.378 144.249 109.004 141.522 109.505 138.796C110.257 134.831 111.134 130.865 112.01 126.9C112.136 126.528 112.386 125.908 112.136 125.784C111.134 125.041 109.881 124.173 110.758 122.934C112.386 120.58 112.762 117.482 114.891 115.499C116.645 113.764 118.774 114.631 120.402 115.375C122.156 116.242 121.53 118.101 120.778 119.588C118.899 124.049 117.522 128.758 116.645 133.591C118.273 133.715 118.273 132.476 118.649 131.609C121.405 126.156 124.912 120.951 128.043 115.747C128.794 114.507 129.797 113.144 131.675 113.764C133.304 114.383 135.182 114.631 135.558 116.862C135.683 117.729 135.558 118.349 135.182 119.092C131.174 126.28 129.546 134.087 129.17 142.39Z" fill="#BAB7A4"/>
<path d="M85.2085 184.276C82.9539 184.4 80.6993 184.524 78.57 184.647C77.568 184.647 77.568 185.391 77.1922 186.011C76.4407 187.374 75.8144 188.861 74.9377 190.224C72.6831 193.818 72.5578 193.694 66.7962 192.95C66.4204 192.083 66.6709 191.463 67.1719 190.72C72.8083 183.532 74.8124 174.734 78.069 166.555C78.6953 164.944 79.1963 163.209 79.8226 161.474C81.7014 156.765 83.3297 156.021 88.2146 157.385C90.3439 158.004 91.9722 159.615 93.851 160.73C94.853 161.35 94.4773 162.713 94.2268 163.705C93.35 167.05 92.4732 170.396 92.348 173.866C92.348 175.849 91.3459 177.956 93.2247 179.691C93.6005 180.062 93.7257 180.806 93.2247 181.425C90.7197 184.647 91.8469 187.869 93.4752 190.967C93.9763 192.083 93.9763 192.702 92.7237 193.198C91.0954 193.942 89.5924 194.561 87.5883 193.942C85.3337 193.198 84.5822 191.959 85.0832 189.728C85.459 187.993 85.459 186.258 85.2085 184.276ZM85.3337 177.46C85.96 172.751 86.5863 168.414 87.2125 164.076C87.3378 163.457 87.5883 162.713 86.7115 162.341C85.8347 161.97 85.5842 162.589 85.3337 163.333C83.7054 168.042 82.0771 172.627 80.9498 177.584C82.4529 177.46 83.8307 177.46 85.3337 177.46Z" fill="#BAB7A4"/>
<path d="M91.2182 122.183C90.4666 121.067 89.2141 121.687 88.5878 121.067C88.8383 119.085 87.711 116.978 88.9636 114.623C91.7192 114.623 94.7253 114.623 97.8566 114.623C100.988 114.623 103.994 113.88 107.125 114.375C108.503 114.623 109.004 115.119 108.879 116.482C108.754 117.597 109.004 118.713 108.754 119.704C108.503 121.067 108.127 121.935 106.249 121.439C99.6102 119.828 97.1051 122.059 96.8546 129.37C99.2344 129.246 101.614 128.998 103.994 128.874C105.873 128.75 106.374 129.494 105.873 131.229C105.873 131.353 105.748 131.477 105.748 131.477C106.499 137.673 101.489 136.062 98.4829 136.31C95.4768 136.434 94.7253 137.549 94.7253 140.151C94.7253 141.391 94.3495 142.754 94.2243 144.117C97.6061 144.613 100.988 144.489 104.37 144.365C105.121 146.595 103.744 148.33 103.994 150.313C104.119 151.18 102.867 151.304 102.115 151.428C97.6061 152.048 93.097 151.18 88.7131 150.809C86.5838 150.561 86.5838 149.074 86.8343 147.463C88.0868 140.523 89.3394 133.707 90.5919 126.768C90.8424 125.033 91.0929 123.546 91.2182 122.183Z" fill="#BAB7A4"/>
<path d="M166.746 129.372C169.126 129.248 171.506 129 173.886 128.876C175.639 128.752 176.767 129.372 175.765 131.355C175.013 132.842 176.266 134.701 175.013 135.94C173.761 137.055 172.007 135.816 170.379 136.064C165.369 136.807 165.369 136.807 164.492 141.764C164.367 142.508 164.241 143.375 164.116 144.243C167.498 144.614 170.88 144.614 174.262 144.367C174.888 146.597 173.886 148.332 174.011 150.191C174.136 151.182 173.009 151.182 172.132 151.306C167.498 152.05 162.989 151.182 158.354 150.687C156.35 150.439 156.601 148.952 156.726 147.589C157.603 140.029 159.356 132.594 160.734 125.159C160.859 124.167 160.985 123.176 161.11 122.432C160.484 121.193 159.356 122.061 158.605 121.317C158.605 121.193 158.354 120.945 158.48 120.821C158.981 118.963 157.478 116.608 159.106 115.245C160.609 113.882 162.738 115.245 164.617 115.121C168.75 114.873 172.759 113.882 176.892 114.625C179.021 114.997 179.773 116.36 179.021 119.582C178.646 121.317 177.769 122.556 175.639 121.441C175.389 121.317 175.013 121.317 174.763 121.317C169.126 120.45 167.498 121.937 166.746 129.372Z" fill="#BAB7A4"/>
<path d="M51.6435 179.934C51.7687 182.412 51.5182 184.89 53.5223 186.873C55.1506 188.484 56.9041 188.856 58.9082 187.741C60.9123 186.749 62.4153 185.262 63.9184 183.527C64.5446 182.784 65.2962 181.916 66.4235 182.536C67.5507 183.156 67.676 184.395 67.0497 185.386C64.6699 189.104 61.9143 192.574 57.4052 193.937C51.393 195.796 45.6313 192.45 44.504 185.882C42.8757 175.596 45.8818 166.426 53.397 159.115C56.6536 155.893 63.2921 156.141 67.0497 158.991C68.177 159.858 68.5528 160.726 68.3023 162.089C67.9265 164.195 67.676 166.426 67.3002 168.533C67.0497 170.516 65.4214 172.003 63.4174 171.631C61.5385 171.259 60.0355 170.392 60.4113 168.037C60.6618 166.426 60.9123 164.939 61.1628 163.328C61.288 162.584 61.5385 161.717 60.5365 161.221C59.6597 160.85 58.9082 161.221 58.4072 161.717C57.6557 162.461 56.7789 163.204 56.2779 164.195C53.5223 169.028 51.5182 174.109 51.6435 179.934Z" fill="#BAB7A4"/>
<path d="M143.824 121.692C141.82 121.692 140.192 121.692 138.439 121.692C138.063 119.585 137.812 117.479 137.437 115.248C142.822 114.009 148.584 114.257 154.221 114.133C156.099 114.133 156.851 115.62 156.475 117.231C156.099 118.842 156.6 121.444 153.72 121.32C151.465 121.196 150.839 122.064 150.338 124.047C148.459 131.978 146.455 140.033 146.705 148.335C146.831 150.566 145.202 151.929 143.073 151.557C140.693 151.185 138.564 148.831 138.94 146.972C140.568 138.669 142.196 130.367 143.824 121.692Z" fill="#BAB7A4"/>
<path d="M127.419 111.527C123.411 111.651 120.781 109.668 120.155 106.57C119.904 105.331 119.779 104.092 121.407 103.844C122.66 103.72 124.288 103.224 124.538 105.455C124.664 106.323 124.538 107.314 125.791 107.562C127.043 107.81 127.67 106.942 128.046 106.075C129.298 102.977 131.803 103.596 134.058 103.968C135.937 104.34 135.561 105.703 134.934 106.942C133.181 109.916 130.3 111.032 127.419 111.527Z" fill="#BAB7A4"/>
<path d="M164.744 192.45C164.869 189.228 166.999 187.121 170.005 187.245C172.259 187.369 173.011 188.98 173.136 190.839C173.136 193.07 170.255 195.672 168.001 195.672C165.746 195.548 164.869 194.309 164.744 192.45Z" fill="#BAB7A4"/>
</g>
</svg>
