<svg width="246" height="226" viewBox="0 0 246 226" fill="none" xmlns="http://www.w3.org/2000/svg">
<path d="M190.098 60.3159C187.061 73.5235 184.344 85.7763 181.627 98.1882C180.028 105.667 180.028 105.667 172.197 105.667C156.533 105.667 141.03 105.826 125.366 105.826C124.407 105.826 123.289 105.667 122.01 105.508C122.489 103.599 122.969 102.007 123.289 100.257C123.928 96.5969 122.01 94.3692 118.334 94.21C112.26 94.0509 106.027 94.0509 99.9534 94.0509C93.5602 94.0509 91.4824 96.2787 91.9619 102.644C91.9619 103.439 92.1217 104.076 92.1217 104.872C90.3636 105.667 88.7653 105.349 87.167 105.349C75.6592 105.349 64.1514 105.349 52.6436 105.508C49.7667 105.508 49.1274 104.553 49.1274 102.007C49.2872 93.2553 49.1274 84.5033 49.1274 74.7965C38.7384 78.9338 28.9888 82.7529 19.0793 86.731C12.6861 74.3191 6.9322 61.9072 1.33814 49.4953C0.219327 47.1083 0.219326 45.8353 2.61678 44.2441C14.604 35.4921 25.6323 25.6262 36.9803 15.9194C47.6889 6.84913 60.3155 2.55269 73.9011 0.802291C76.2985 0.484036 78.8558 -0.629856 81.7327 0.484035C81.5729 5.41698 81.4131 10.5091 82.6917 15.442C87.0071 34.0599 105.388 47.7449 124.567 47.1083C147.263 46.1536 165.484 26.2627 164.205 4.62135C163.885 -0.470729 164.045 -0.311602 169.32 0.484035C179.709 1.91618 189.778 4.30309 199.048 9.39517C204.802 12.5777 209.757 16.715 214.552 21.0115C223.982 29.2861 233.252 37.4016 243.321 44.7214C245.399 46.1536 245.399 47.4266 244.44 49.4953C238.846 62.0663 232.932 74.3191 226.699 87.0493C219.826 84.6624 212.953 81.9572 206.4 78.7747C204.802 77.979 205.601 76.5469 205.921 75.433C208.478 67.1584 211.355 59.0429 213.593 50.7683C214.711 46.4718 217.269 43.4484 219.986 40.2659C220.625 39.4702 221.424 38.8337 221.904 37.879C222.703 36.6059 222.543 35.4921 221.264 34.5373C219.986 33.7416 218.867 33.9008 217.908 35.0147C216.789 36.4468 215.511 37.879 214.072 39.6294C211.994 38.5155 210.396 36.7651 208.318 35.8103C202.245 33.1051 194.893 37.0833 193.614 43.4484C191.376 55.5421 191.057 55.7012 178.909 59.0429C164.205 63.0211 149.341 65.8854 133.997 65.5671C132.878 65.5671 131.76 65.5671 130.481 65.5671C128.723 65.5671 127.764 66.5219 127.604 67.954C127.444 69.8636 128.883 70.1818 130.481 70.1818C136.395 70.5001 142.308 70.1818 148.062 69.5453C158.291 68.4314 168.521 66.681 178.43 63.8167C182.266 62.862 185.782 61.7481 190.098 60.3159ZM93.8798 61.4298C94.9986 61.2707 95.7978 60.9524 96.2773 59.8385C96.7568 58.7246 96.1174 57.929 95.3183 57.2925C93.0807 55.5421 90.6832 54.2691 88.7653 52.2004C87.9661 51.2457 86.6875 51.4048 85.5686 51.8822C84.6097 52.3595 84.4498 53.3143 84.6097 54.11C84.9293 55.8604 91.9619 61.4298 93.8798 61.4298ZM79.4951 43.2893C77.8968 40.2659 76.2985 36.9242 74.5404 33.7416C74.0609 32.946 72.9421 33.1051 71.9831 33.4234C71.0241 33.7416 70.5446 34.6964 70.7045 35.4921C71.5036 38.9929 73.2617 42.0163 75.1797 44.8806C75.819 45.8353 77.2575 45.6762 78.3763 45.1988C79.3353 45.0397 79.4951 44.2441 79.4951 43.2893ZM66.7087 16.715C66.8685 18.3063 67.1882 20.0567 67.348 21.8071C67.5078 23.2392 67.9873 24.194 69.7455 24.0349C71.1839 23.8758 71.9831 22.921 71.9831 21.4888C71.8233 18.6246 71.6634 15.7603 71.5036 12.7368C71.3438 11.4638 70.8643 10.6682 69.4258 10.5091C67.8275 10.5091 67.5078 11.4638 67.1882 12.5777C66.8685 14.0099 66.8685 15.2829 66.7087 16.715ZM114.818 68.9088C116.416 69.0679 117.535 68.7497 118.014 67.4766C118.494 66.2036 117.854 65.0897 116.736 64.7715C113.699 63.9758 110.502 63.3393 107.465 62.7028C106.187 62.3846 105.068 63.1802 104.748 64.2941C104.429 65.5671 105.068 66.3627 106.347 66.8401C109.064 67.954 112.1 68.5905 114.818 68.9088Z" fill="#BAB7A4"/>
<path d="M194.745 111.568C196.024 112.841 196.024 114.274 196.024 115.865C196.024 151.35 196.024 186.836 196.024 222.321C196.024 225.185 195.065 225.822 192.188 225.822C148.075 225.663 103.962 225.822 59.8484 225.822C57.2911 225.822 54.7338 225.822 52.1765 225.981C49.4594 226.14 48.5004 225.344 48.5004 222.321C48.5004 215.638 48.3406 216.592 54.2543 216.592C87.499 216.592 120.744 216.592 153.988 216.592C164.697 216.592 166.295 215.001 168.213 204.499C170.93 189.7 174.926 175.06 179.242 160.58C183.717 145.144 188.192 129.709 192.667 114.114C193.147 113.319 193.466 112.205 194.745 111.568Z" fill="#BAB7A4"/>
<path d="M38.0972 149.578C34.5809 153.716 32.1835 158.808 26.4296 158.171C22.4338 157.694 20.3561 154.352 19.7167 150.056C17.7988 151.011 16.9996 152.602 16.2005 154.034C14.2825 157.694 11.5654 159.444 8.04913 158.967C4.37303 158.49 1.49609 155.625 0.69694 151.647C-0.262041 146.714 0.696942 141.781 1.81575 136.848C2.77473 132.711 3.73371 128.414 4.6927 124.277C3.09439 123.482 1.97558 125.55 0.0576172 123.959C1.17643 119.185 3.73371 114.57 7.56964 111.388C8.84828 110.274 12.6842 109.956 15.0817 111.865C16.9996 113.616 16.2005 115.843 15.721 117.912C13.3235 126.187 10.9261 134.461 9.80726 143.054C9.4876 145.282 9.00811 147.987 11.2457 148.942C13.9628 150.056 15.5611 147.191 16.8398 145.282C21.315 139.076 22.7535 131.597 23.233 124.436C23.5527 120.617 23.233 116.957 24.9911 113.456C26.1099 111.07 30.1057 109.637 32.9826 110.751C36.3391 112.024 35.5399 114.889 34.9006 117.276C32.663 124.118 31.0647 131.279 29.6262 138.28C29.1467 140.508 28.8271 142.736 28.8271 145.123C28.8271 146.396 28.8271 147.987 30.5852 148.624C32.1835 149.101 33.3023 148.146 34.2613 147.032C35.6998 145.441 36.6587 143.691 37.1382 141.781C39.5357 133.507 42.7323 125.391 43.3716 116.798C43.5314 115.207 44.9699 114.093 44.3306 112.502C44.3306 112.343 44.4904 112.183 44.6502 112.024C45.6092 111.07 47.2075 110.91 47.687 111.706C49.2853 113.934 53.7606 110.592 53.7606 115.207C53.7606 117.116 53.6007 119.026 52.8016 120.776C49.605 127.619 48.646 135.098 47.0477 142.418C46.5682 144.486 44.8101 148.146 49.7648 148.783C50.564 148.942 51.5229 151.965 50.0845 153.397C48.1665 155.466 45.7691 156.898 42.7323 156.58C39.6955 156.262 39.3758 153.875 38.8964 151.647C38.5767 151.17 38.4169 150.692 38.0972 149.578Z" fill="#BAB7A4"/>
<path d="M80.6088 190.012C80.1293 197.173 77.2523 203.856 76.7728 210.857C76.613 212.608 75.9737 213.722 74.3754 214.517C72.6172 215.313 71.3386 214.358 70.2198 213.244C67.6625 210.698 66.8634 207.516 67.5027 204.174C68.9412 197.491 70.06 190.648 71.8181 184.124C72.7771 180.305 71.3386 176.486 72.7771 172.667C73.2566 171.553 73.2566 170.121 73.7361 169.007C75.1745 165.824 77.572 164.551 81.2481 165.029C84.4447 165.506 84.6045 167.893 85.084 170.598C86.3626 178.714 88.1208 186.67 89.7191 194.626C90.9977 194.786 91.3174 194.149 91.4772 193.513C95.9524 185.556 100.428 177.6 103.305 168.848C104.104 166.302 107.94 163.915 110.497 164.551C113.214 165.188 114.653 168.37 113.694 171.553C111.456 178.873 109.059 186.352 106.821 193.672C106.022 196.377 105.862 199.082 106.501 202.265C109.218 200.514 110.177 202.742 111.136 204.333C111.776 205.606 111.136 206.561 108.899 208.311C106.341 210.221 103.784 212.767 100.428 211.017C96.9114 209.107 97.3909 205.447 97.5507 202.105C97.5507 199.559 98.0302 197.013 98.3499 194.149C96.2721 195.422 96.1123 197.332 95.1533 198.923C93.2353 202.424 91.637 205.925 89.8789 209.425C88.7601 211.494 87.002 211.971 85.084 211.017C83.0062 210.062 80.9284 208.948 81.5677 205.925C82.5267 200.673 82.5267 195.263 80.6088 190.012Z" fill="#BAB7A4"/>
<path d="M211.195 42.8162C208.318 45.3623 205.92 48.0675 202.404 49.0222C201.285 49.3405 200.966 49.8179 200.806 50.7726C199.207 57.456 197.449 64.2984 195.691 70.9818C195.372 72.4139 195.212 74.0052 196.011 75.5965C197.929 75.1191 198.408 73.5278 198.888 71.9366C200.326 67.1627 201.925 62.2298 203.043 57.2968C203.843 53.796 206.08 52.3639 209.916 50.7726C194.413 100.261 179.069 149.113 163.725 198.124C162.446 197.17 163.086 196.374 163.246 195.578C171.077 160.73 178.909 126.04 186.741 91.191C189.298 79.5747 192.335 67.9584 194.732 56.3421C195.531 52.3639 196.65 48.3857 197.13 44.4075C197.609 40.9067 199.527 38.9972 202.564 38.3607C206.24 37.8833 209.117 39.3154 211.195 42.8162Z" fill="#BAB7A4"/>
<path d="M143.583 201.941C145.341 202.418 145.981 200.509 147.419 200.827C148.538 206.237 146.46 209.738 141.186 211.17C137.19 212.284 134.633 210.057 134.153 205.442C133.834 200.032 134.793 194.78 136.071 189.688C136.231 188.733 137.03 187.938 135.911 186.665C133.194 190.802 131.276 195.099 129.358 199.554C127.6 203.532 126.002 207.51 124.404 211.489C123.764 213.08 122.965 214.353 120.887 214.353C118.81 214.353 117.691 213.716 116.572 211.966C114.974 209.261 115.293 206.874 116.252 203.851C117.691 199.236 118.33 194.462 119.289 189.688C119.769 187.46 120.248 185.233 120.728 183.005C121.047 181.414 121.047 180.141 120.568 178.39C119.449 174.571 121.527 170.911 123.764 167.888C125.363 165.66 127.76 165.819 130.317 166.615C133.674 167.57 133.514 169.32 132.555 171.707C130.317 177.276 128.399 182.846 127.281 188.733C127.121 189.688 126.961 190.643 127.44 191.916C128.559 189.847 129.518 187.779 130.637 185.71C134.153 179.663 137.829 173.776 141.505 167.729C143.583 164.228 145.981 163.751 149.497 166.456C151.894 168.365 151.255 170.275 149.657 172.821C146.3 178.39 145.181 184.914 143.743 191.12C143.264 194.939 142.464 198.281 143.583 201.941Z" fill="#BAB7A4"/>
<path d="M108.739 146.886C110.977 147.523 111.616 145.773 112.895 145.932C114.333 151.66 112.256 155.161 106.502 156.434C103.145 157.071 101.227 155.957 100.268 152.456C98.8298 146.886 100.428 141.635 101.387 136.225C101.547 135.111 102.186 134.156 101.867 132.883C100.268 132.565 100.428 133.997 99.9486 134.793C96.4324 141.476 93.3956 148.319 90.8383 155.32C89.8793 158.025 88.4409 160.412 85.0844 159.298C82.3673 158.344 81.4083 155.479 81.728 152.774C82.2075 149.273 83.0066 145.773 83.6459 142.272C84.6049 137.18 85.7237 132.088 86.8426 126.996C87.0024 126.518 87.322 125.722 87.0024 125.563C85.7237 124.609 84.1254 123.495 85.2442 121.903C87.322 118.88 87.8015 114.902 90.5186 112.356C92.7563 110.128 95.4734 111.242 97.5512 112.197C99.7888 113.311 98.9896 115.697 98.0307 117.607C95.6332 123.336 93.8751 129.382 92.7563 135.588C94.8341 135.748 94.8341 134.156 95.3135 133.042C98.8298 126.041 103.305 119.357 107.301 112.674C108.26 111.083 109.538 109.332 111.936 110.128C114.014 110.924 116.411 111.242 116.891 114.106C117.05 115.22 116.891 116.016 116.411 116.97C111.297 126.2 109.219 136.225 108.739 146.886Z" fill="#BAB7A4"/>
<path d="M52.6419 200.672C49.765 200.831 46.888 200.99 44.1709 201.15C42.8923 201.15 42.8923 202.104 42.4128 202.9C41.4538 204.65 40.6546 206.56 39.5358 208.31C36.6589 212.925 36.4991 212.766 29.1469 211.811C28.6674 210.697 28.9871 209.902 29.6264 208.947C36.8187 199.717 39.376 188.419 43.5316 177.917C44.3307 175.848 44.9701 173.621 45.7692 171.393C48.1667 165.346 50.2444 164.391 56.4778 166.142C59.1949 166.937 61.2727 169.006 63.6702 170.438C64.9488 171.234 64.4693 172.984 64.1496 174.257C63.0308 178.553 61.912 182.85 61.7522 187.305C61.7522 189.852 60.4736 192.557 62.871 194.784C63.3505 195.262 63.5103 196.217 62.871 197.012C59.6744 201.15 61.1129 205.287 63.1907 209.265C63.83 210.697 63.83 211.493 62.2317 212.129C60.1539 213.084 58.2359 213.88 55.6787 213.084C52.8017 212.129 51.8427 210.538 52.4821 207.674C52.9616 205.446 52.9616 203.218 52.6419 200.672ZM52.8017 191.92C53.6009 185.873 54.4 180.304 55.1992 174.734C55.359 173.939 55.6787 172.984 54.5598 172.507C53.441 172.029 53.1214 172.825 52.8017 173.78C50.7239 179.827 48.6461 185.714 47.2077 192.079C49.1256 191.92 50.8838 191.92 52.8017 191.92Z" fill="#BAB7A4"/>
<path d="M60.3097 120.939C59.3507 119.507 57.7524 120.303 56.9533 119.507C57.2729 116.961 55.8345 114.256 57.4328 111.232C60.949 111.232 64.785 111.232 68.7807 111.232C72.7765 111.232 76.6124 110.278 80.6082 110.914C82.3663 111.232 83.0056 111.869 82.8458 113.619C82.686 115.051 83.0056 116.484 82.686 117.757C82.3663 119.507 81.8868 120.621 79.4894 119.984C71.0184 117.916 67.8218 120.78 67.5021 130.169C70.5389 130.009 73.5756 129.691 76.6124 129.532C79.0099 129.373 79.6492 130.328 79.0099 132.555C79.0099 132.715 78.85 132.874 78.85 132.874C79.809 140.83 73.4158 138.761 69.5799 139.08C65.744 139.239 64.785 140.671 64.785 144.013C64.785 145.604 64.3055 147.354 64.1456 149.105C68.4611 149.741 72.7765 149.582 77.0919 149.423C78.0509 152.287 76.2928 154.515 76.6124 157.061C76.7722 158.175 75.1739 158.334 74.215 158.493C68.4611 159.289 62.7072 158.175 57.1131 157.698C54.396 157.379 54.396 155.47 54.7157 153.401C56.314 144.49 57.9123 135.738 59.5106 126.827C59.8302 124.599 60.1499 122.69 60.3097 120.939Z" fill="#BAB7A4"/>
<path d="M156.689 130.172C159.725 130.013 162.762 129.694 165.799 129.535C168.037 129.376 169.475 130.172 168.196 132.718C167.237 134.627 168.836 137.014 167.237 138.606C165.639 140.038 163.401 138.446 161.324 138.765C154.93 139.719 154.93 139.719 153.812 146.085C153.652 147.039 153.492 148.153 153.332 149.267C157.648 149.744 161.963 149.744 166.278 149.426C167.078 152.291 165.799 154.518 165.959 156.905C166.119 158.178 164.68 158.178 163.561 158.337C157.648 159.292 151.894 158.178 145.98 157.542C143.423 157.223 143.742 155.314 143.902 153.564C145.021 143.857 147.259 134.309 149.017 124.761C149.177 123.488 149.336 122.215 149.496 121.261C148.697 119.669 147.259 120.783 146.3 119.829C146.3 119.669 145.98 119.351 146.14 119.192C146.779 116.805 144.861 113.782 146.939 112.031C148.857 110.281 151.574 112.031 153.971 111.872C159.246 111.554 164.36 110.281 169.635 111.236C172.352 111.713 173.311 113.463 172.352 117.601C171.872 119.829 170.754 121.42 168.037 119.988C167.717 119.829 167.237 119.829 166.918 119.829C159.725 118.715 157.648 120.624 156.689 130.172Z" fill="#BAB7A4"/>
<path d="M9.81107 195.097C9.9709 198.279 9.65124 201.462 12.2085 204.008C14.2863 206.076 16.5239 206.554 19.0812 205.122C21.6385 203.849 23.5565 201.939 25.4744 199.711C26.2736 198.757 27.2326 197.643 28.671 198.438C30.1095 199.234 30.2693 200.825 29.4702 202.098C26.4334 206.872 22.9171 211.328 17.1633 213.078C9.4914 215.465 2.13921 211.168 0.70074 202.735C-1.37705 189.527 2.45887 177.752 12.0487 168.363C16.2043 164.226 24.6753 164.544 29.4702 168.204C30.9087 169.318 31.3882 170.432 31.0685 172.182C30.589 174.887 30.2693 177.752 29.7899 180.457C29.4702 183.003 27.3924 184.912 24.8351 184.435C22.4377 183.958 20.5197 182.844 20.9992 179.82C21.3188 177.752 21.6385 175.842 21.9582 173.774C22.118 172.819 22.4377 171.705 21.159 171.068C20.0402 170.591 19.0812 171.068 18.4419 171.705C17.4829 172.66 16.3641 173.614 15.7248 174.887C12.2085 181.093 9.65124 187.618 9.81107 195.097Z" fill="#BAB7A4"/>
<path d="M127.438 120.308C124.881 120.308 122.803 120.308 120.566 120.308C120.086 117.603 119.767 114.898 119.287 112.034C126.16 110.442 133.512 110.761 140.704 110.602C143.102 110.602 144.061 112.511 143.581 114.58C143.102 116.648 143.741 119.99 140.065 119.831C137.188 119.672 136.389 120.786 135.75 123.332C133.352 133.516 130.795 143.859 131.115 154.521C131.274 157.385 129.197 159.135 126.479 158.658C123.443 158.181 120.726 155.157 121.205 152.77C123.283 142.109 125.361 131.447 127.438 120.308Z" fill="#BAB7A4"/>
<path d="M106.506 107.256C101.391 107.415 98.0348 104.869 97.2356 100.891C96.9159 99.2997 96.7561 97.7084 98.8339 97.3902C100.432 97.231 102.51 96.5945 102.83 99.4588C102.989 100.573 102.83 101.846 104.428 102.164C106.026 102.482 106.825 101.368 107.305 100.254C108.903 96.2762 112.1 97.0719 114.977 97.5493C117.374 98.0267 116.895 99.7771 116.096 101.368C113.858 105.187 110.182 106.62 106.506 107.256Z" fill="#BAB7A4"/>
<path d="M154.134 211.169C154.294 207.031 157.011 204.326 160.847 204.485C163.724 204.644 164.683 206.713 164.842 209.1C164.842 211.964 161.166 215.306 158.289 215.306C155.412 215.147 154.294 213.555 154.134 211.169Z" fill="#BAB7A4"/>
</svg>
